<svg xmlns="http://www.w3.org/2000/svg" width="900" height="747" viewBox="0 0 900 747" version="1.1"><path d="M 606.332 42.903 C 601.908 44.035, 594.523 48.519, 592.183 51.494 L 590.220 53.990 584.457 51.352 C 578.888 48.802, 578.253 48.733, 565.597 49.307 C 549.060 50.056, 526.592 53.977, 521.079 57.076 C 517.868 58.880, 516.608 60.435, 515.115 64.432 C 512.736 70.802, 510.291 85.492, 509.444 98.500 C 508.593 111.578, 508.342 111.263, 531.712 126.396 L 539.925 131.714 532.712 133.822 C 519.328 137.733, 511.161 144.681, 505.868 156.658 C 504.161 160.521, 503.734 163.421, 503.759 171 C 503.787 179.842, 504.889 185.076, 508.428 193.183 C 509.097 194.717, 508.602 194.695, 502.831 192.934 C 475.714 184.662, 438.901 183.909, 412 191.077 C 394.535 195.731, 376.093 204.499, 363.928 213.935 C 357.465 218.948, 341 235.853, 341 237.477 C 341 237.838, 339.912 239.566, 338.581 241.317 C 332.531 249.279, 323.906 268.520, 320.120 282.500 C 317.217 293.218, 315.435 318.653, 317.107 325.500 C 317.510 327.150, 318.092 330.525, 318.401 333 C 319.095 338.560, 320.214 342.838, 322.904 350.207 C 328.337 365.091, 336.073 376.541, 356.541 399.995 C 386.580 434.416, 392.657 448.952, 384.481 466.827 C 381.465 473.423, 379.070 476.145, 369.494 483.857 C 359.604 491.822, 357.157 493.444, 348.321 497.890 C 332.601 505.801, 319.874 508.561, 303.159 507.685 C 290.041 506.997, 281.915 505.167, 274.809 501.300 C 263.502 495.146, 257.027 486.770, 255.244 475.994 C 253.786 467.178, 253.806 465.713, 255.511 456.500 C 257.519 445.652, 260.935 437.377, 271.200 418.500 C 275.984 409.700, 280.408 400.250, 281.031 397.500 C 282.978 388.894, 280.680 376.851, 275.725 369.692 C 274.656 368.148, 273.943 366.749, 274.141 366.584 C 274.338 366.418, 279.900 363.465, 286.500 360.021 C 308.520 348.531, 309.151 347.956, 309.531 339 C 309.755 333.723, 310.180 308.065, 310.073 306.267 C 309.967 304.474, 302.320 300.866, 286.208 295.006 C 268.843 288.690, 265.174 288.443, 252 292.709 C 246.775 294.401, 238 297.196, 232.500 298.921 C 227 300.645, 218.900 303.506, 214.500 305.278 C 206.989 308.303, 206.481 308.699, 206.187 311.750 C 205.943 314.281, 205.411 315, 203.781 315 C 200.479 315, 195.708 319.286, 192.506 325.130 C 189.913 329.860, 189.516 331.710, 189.171 340.660 C 188.879 348.251, 189.194 352.069, 190.419 355.755 C 193.933 366.335, 199.382 370.636, 216 375.948 C 228.716 380.013, 230.909 381.070, 238.153 386.629 C 245.351 392.153, 248.493 398.097, 247.467 404.248 C 246.592 409.495, 243.675 415.361, 236.363 426.580 C 220.222 451.342, 213.131 474.730, 214.275 499.431 C 214.755 509.790, 217.254 520.094, 219.730 521.928 C 220.155 522.243, 221.127 523.712, 221.890 525.193 C 223.688 528.684, 234.003 539, 235.696 539 C 236.413 539, 237 539.376, 237 539.837 C 237 542.656, 266.031 554.053, 277.142 555.596 C 292.218 557.690, 314.070 556.064, 331.796 551.529 C 343.918 548.428, 349.345 546.346, 364.682 538.912 C 371.390 535.660, 377.356 533, 377.939 533 C 378.523 533, 379.057 534.013, 379.128 535.250 C 379.198 536.487, 379.382 538.400, 379.537 539.500 C 381.480 553.300, 382.111 566.256, 381.075 571.096 C 378.320 583.971, 369.268 590.127, 350.922 591.604 C 334.621 592.915, 317.256 586.406, 287.726 567.914 C 274.216 559.454, 264.176 555.242, 253.970 553.754 C 235.903 551.121, 219.194 558.347, 207.853 573.699 C 200.812 583.230, 197.728 593.846, 198.578 605.627 C 199.466 617.936, 208.985 633.437, 221 642.139 C 231.511 649.752, 247.248 649.831, 253.744 642.303 C 257.974 637.401, 259.275 627.876, 256.329 623.380 C 255.410 621.977, 251.181 618.183, 246.931 614.947 C 238.024 608.167, 235 603.944, 235 598.287 C 235 593.812, 236.571 591.913, 242.224 589.551 C 246.869 587.610, 250.219 588.256, 260.890 593.151 C 265.504 595.268, 269.554 596.999, 269.890 596.997 C 270.960 596.993, 258.669 589.785, 254.126 587.753 C 238.547 580.785, 224.664 592.621, 231.864 606.733 C 233.698 610.329, 236.677 613.429, 244.611 620 C 251.239 625.490, 252.641 630.797, 249.027 636.723 C 246.771 640.424, 243.839 641.432, 237.196 640.790 C 230.465 640.140, 225.290 637.373, 218.963 631.041 C 201.256 613.321, 200.771 591.242, 217.688 572.970 C 221.370 568.993, 225.373 565.957, 229.821 563.768 C 235.904 560.774, 237.216 560.508, 245.480 560.594 C 258.198 560.726, 268.022 564.678, 286.705 577.179 C 290.668 579.831, 294.185 582, 294.522 582 C 294.858 582, 296.566 583.080, 298.317 584.400 C 304.286 588.899, 319.028 595.744, 327 597.719 C 330.025 598.468, 333.625 599.371, 335 599.724 C 340.102 601.038, 357.428 600.307, 364 598.501 C 381.944 593.570, 389.720 584.400, 390.710 567 C 391.139 559.461, 390.122 546.082, 388.580 539 C 381.583 506.850, 382.528 498.150, 394.410 485.324 C 407.522 471.171, 425.034 464.702, 440 468.483 L 442.500 469.115 440 467.689 C 431.110 462.619, 414.800 466.271, 399.288 476.805 C 391.325 482.212, 383.787 490.655, 379.933 498.484 C 376.998 504.445, 376.774 505.632, 376.865 514.708 L 376.964 524.500 368.732 529.166 C 358.073 535.207, 352.429 537.320, 336 541.419 C 314.721 546.729, 309.494 547.482, 294 547.472 C 278.198 547.461, 271.842 546.286, 258.002 540.819 C 241.311 534.225, 230.579 525.276, 224.643 513 L 221.500 506.500 221.602 489.500 C 221.692 474.639, 222.027 471.288, 224.265 462.869 C 227.733 449.821, 230.440 443.421, 239.459 426.946 C 244.490 417.758, 247.610 410.765, 248.493 406.704 C 249.234 403.292, 249.877 401.255, 249.921 402.177 C 249.964 403.100, 251.012 404.686, 252.250 405.702 C 253.487 406.717, 254.649 408.213, 254.831 409.024 C 255.013 409.836, 255.726 410.818, 256.415 411.207 C 257.104 411.596, 258.943 413.753, 260.500 416 C 262.093 418.299, 263.896 419.870, 264.622 419.592 C 265.423 419.284, 265.123 420.498, 263.830 422.798 C 252.730 442.537, 248 456.777, 248 470.448 C 248 484.494, 253.980 496.309, 265.312 504.651 C 268.562 507.043, 271.625 509, 272.121 509 C 272.616 509, 274.929 509.889, 277.261 510.976 C 287.113 515.567, 307.767 517.365, 323 514.957 C 355.822 509.769, 387.219 484.957, 391.048 461.181 C 392.523 452.021, 390.762 441.404, 386.154 431.681 C 382.464 423.895, 378.410 418.181, 353.208 385.256 C 340.959 369.253, 333.702 355.822, 329.577 341.523 C 320.757 310.940, 326.877 276.341, 346.333 246.798 C 355.933 232.219, 372.709 217.198, 387.967 209.518 C 394.524 206.218, 410.759 200.053, 414.500 199.443 C 415.600 199.264, 419.650 198.383, 423.500 197.485 C 432.262 195.441, 466.085 194.502, 475.783 196.032 C 484.820 197.459, 496.966 200.422, 506.582 203.546 C 515.190 206.343, 536.294 216.444, 538.115 218.639 C 538.737 219.388, 539.644 220, 540.131 220 C 540.972 220, 545.981 223.369, 552.430 228.273 C 554.041 229.498, 559.823 234.775, 565.279 240 C 587.089 260.887, 595.148 279.625, 595.386 310 C 595.488 322.974, 595.203 325.605, 592.678 335 C 584.962 363.707, 568.846 385.020, 534.500 411.937 C 527.900 417.110, 519.667 424.077, 516.204 427.421 C 508.798 434.572, 498.013 450.163, 494.513 458.775 C 491.801 465.449, 489.844 473.032, 490.856 472.944 C 491.210 472.913, 492.994 469.756, 494.820 465.928 C 496.647 462.101, 498.528 459.208, 499.001 459.501 C 499.475 459.793, 500.155 459.559, 500.513 458.979 C 501.861 456.798, 511.381 453.084, 518.615 451.917 C 527.768 450.440, 547.796 451.520, 551.288 453.678 C 551.799 453.994, 557.680 448.908, 564.356 442.376 C 573.810 433.127, 574.505 432.571, 567.498 439.863 C 552.025 455.963, 543.781 464.143, 531.830 475.251 C 521.601 484.758, 519.698 486.109, 515.381 486.929 C 512.697 487.439, 509.298 488.314, 507.829 488.873 C 505.512 489.756, 504.946 489.567, 503.556 487.445 C 501.297 483.997, 499.852 484.397, 501.638 487.977 C 503.088 490.884, 503.039 491.027, 499.503 494.132 C 494.103 498.873, 491.617 504.358, 491.554 511.673 C 491.512 516.443, 491.978 518.489, 493.603 520.673 C 496.820 524.996, 504.173 529.845, 508.561 530.538 C 513.695 531.349, 518.701 528.143, 521.553 522.217 L 523.606 517.951 525.812 520.300 C 527.025 521.592, 527.783 522.883, 527.496 523.171 C 527.209 523.458, 527.633 525.271, 528.439 527.200 C 529.806 530.471, 531.029 538.309, 531.220 545.018 C 531.290 547.498, 531.561 547.770, 533.128 546.931 C 534.577 546.156, 534.835 546.267, 534.373 547.471 C 534.052 548.306, 533.389 548.741, 532.899 548.438 C 531.882 547.809, 530.708 550.520, 529.198 556.988 C 528.420 560.321, 528.453 561.667, 529.325 562.222 C 531.731 563.752, 524.505 562.938, 517.608 560.902 C 505.558 557.344, 497.337 552.452, 488.442 543.545 C 481.675 536.767, 479.863 534.223, 477.128 527.652 C 473.475 518.878, 471 507.496, 471 499.471 C 471 496.527, 470.550 493.840, 470 493.500 C 469.380 493.117, 469 494.964, 469 498.364 C 469 502.857, 468.278 505.184, 465.001 511.261 C 457.123 525.865, 454.636 545.415, 458.926 559 C 464.493 576.626, 478.124 590.677, 494.781 595.961 C 501.081 597.960, 503.439 598.199, 512.281 597.741 C 528.333 596.908, 542.872 590.307, 553.185 579.167 C 565.487 565.880, 567.952 550.641, 560.322 535.046 C 553.848 521.814, 534.328 507.715, 520.506 506.288 L 514.547 505.673 517.274 508.913 C 519.241 511.251, 520 513.260, 520 516.126 C 520 529.355, 507.635 532.321, 498.040 521.392 C 495.032 517.967, 494.814 517.255, 495.197 512.091 C 496.320 496.949, 510.151 489.592, 530.540 493.290 C 537.507 494.554, 542.169 496.251, 551.500 500.920 C 569.291 509.821, 579.333 519.006, 586.027 532.500 C 591.087 542.699, 593.023 551.897, 592.557 563.511 C 591.581 587.810, 579.817 605.481, 557.018 616.894 C 551.408 619.702, 545.981 622, 544.958 622 C 543.209 622, 527.676 615.626, 525.500 614.015 C 524.950 613.608, 519.623 611.385, 513.662 609.074 C 501.073 604.193, 501.479 604.170, 480.746 611.003 C 474.076 613.201, 467.982 615, 467.204 615 C 465.624 615, 459.501 610.516, 453.653 605.077 C 449.122 600.863, 437.709 585.033, 433.050 576.500 C 426.143 563.850, 423.449 549.917, 424.272 531.102 C 425.011 514.191, 429.272 500.882, 436.147 494.007 C 437.801 492.353, 438.881 491, 438.548 491 C 436.329 491, 424.894 497.952, 420.738 501.828 C 406.988 514.652, 405.206 526.175, 412.517 555 C 418.173 577.303, 419.490 585.418, 419.495 598 C 419.500 608.413, 419.245 610.045, 416.797 615.268 C 409.680 630.456, 390.957 641.551, 370.500 642.703 C 356.178 643.509, 333.950 638.044, 317.205 629.598 C 308.723 625.320, 291.748 614.118, 282 606.366 C 266.399 593.960, 271.067 599.667, 289.342 615.342 C 303.155 627.190, 313.016 634.204, 322.618 639.013 C 326.403 640.909, 329.730 642.771, 330.010 643.151 C 330.291 643.531, 331.866 644.164, 333.510 644.559 C 335.155 644.953, 336.994 645.662, 337.598 646.134 C 340.752 648.600, 355.968 651.265, 367 651.284 C 379.726 651.306, 387.983 649.656, 396.964 645.296 C 419.684 634.266, 429.440 619.671, 429.249 597 C 429.173 588.017, 429.255 587.627, 430.759 589.830 C 433.827 594.323, 452.720 610.557, 458.477 613.646 L 464.292 616.767 459.190 619.107 C 454.151 621.419, 454.080 621.515, 453.409 626.885 C 452.620 633.197, 454.465 650.233, 456.590 656.256 C 457.395 658.536, 458.824 661.254, 459.768 662.296 C 462.971 665.835, 482.428 679.538, 503.823 693.324 C 522.759 705.525, 525.502 706.996, 528.323 706.467 C 530.071 706.139, 542.058 699.487, 554.962 691.685 C 582.249 675.187, 579.674 678.883, 580.177 655.500 L 580.500 640.500 565 632.670 C 556.475 628.364, 549.387 624.536, 549.248 624.166 C 549.110 623.795, 551.739 622.428, 555.090 621.129 C 572.042 614.555, 589.069 597.250, 595.169 580.393 L 597.379 574.286 608.940 573.664 C 615.298 573.322, 621.828 572.783, 623.450 572.465 C 645.408 568.171, 653.582 565.453, 670.813 556.715 C 689.104 547.440, 704.604 529.499, 707.975 513.700 C 708.468 511.390, 709.381 507.700, 710.003 505.500 C 711.658 499.654, 712.275 437.435, 710.690 436.272 C 710.035 435.792, 706.125 434.428, 702 433.241 C 695.410 431.344, 693.683 430.307, 687.767 424.689 C 676.345 413.845, 663.595 408.288, 647.892 407.312 C 630.678 406.242, 613.641 412.274, 602.815 423.269 C 597.057 429.117, 591 438.387, 591 441.353 C 591 442.296, 589.862 443.210, 588.250 443.562 C 581.746 444.982, 580.063 446.145, 579.400 449.682 C 578.629 453.791, 579.814 479.222, 581.031 484.680 C 581.563 487.068, 583.085 489.511, 585.089 491.196 C 588.633 494.176, 601.422 500.586, 613 505.185 C 617.125 506.824, 622.629 509.252, 625.232 510.582 C 627.834 511.912, 631.209 512.988, 632.732 512.972 C 634.254 512.957, 642.250 510.316, 650.500 507.103 C 658.750 503.891, 665.667 501.408, 665.871 501.586 C 666.629 502.246, 660.974 510.812, 656.487 515.803 C 646.147 527.304, 632.844 533.008, 611.551 535.069 C 595.303 536.643, 595.788 536.755, 592.833 530.750 C 586.771 518.433, 575.809 507.135, 561.908 498.876 C 550.271 491.963, 540.898 488.669, 526.513 486.439 C 523.042 485.900, 522.744 485.660, 524.217 484.583 C 525.148 483.903, 533.917 476.561, 543.705 468.267 C 568.401 447.341, 600.273 415.508, 610.553 401.500 C 612.168 399.300, 613.767 397.275, 614.107 397 C 615.129 396.173, 623.444 382.858, 626.283 377.500 C 630.920 368.750, 635.671 354.941, 637.466 345 C 639.195 335.421, 639.226 319.032, 637.536 308.888 C 632.305 277.504, 617.218 252.698, 584.399 221.524 C 568.044 205.988, 552.628 188.748, 550.467 183.575 C 546.263 173.513, 552.430 160.066, 564.926 152.048 C 569.151 149.336, 570.204 149.039, 572.056 150.030 C 574.477 151.326, 575.474 151.210, 589 148.053 C 594.225 146.834, 599.175 145.690, 600 145.511 C 608.229 143.730, 623.627 139.374, 630.557 136.866 C 639.485 133.635, 641 132.134, 641 126.519 C 641 125.133, 642.691 122.387, 645.116 119.834 C 654.236 110.231, 659.172 99.341, 658.890 89.441 C 658.473 74.761, 643.946 51.331, 631.355 45.030 C 627.555 43.128, 624.653 42.545, 618 42.346 C 613.325 42.207, 608.074 42.457, 606.332 42.903 M 603.500 47.177 C 598.853 48.939, 593 52.890, 593.003 54.263 C 593.007 55.786, 610.622 65.905, 635.285 78.551 C 641.782 81.882, 644.346 83.765, 645.126 85.778 C 646.131 88.369, 645.604 103.841, 644.352 108.500 C 643.349 112.234, 646.712 106.806, 649.002 100.994 C 653.072 90.669, 652.162 82.247, 645.510 68.677 C 637.836 53.023, 629.382 46.937, 614.500 46.354 C 610.100 46.181, 605.150 46.552, 603.500 47.177 M 547.500 56.086 C 539.250 57.133, 530.349 58.329, 527.719 58.745 L 522.938 59.500 537.719 69.089 C 545.849 74.363, 558.920 82.393, 566.766 86.933 L 581.031 95.187 605.266 91.077 C 618.595 88.817, 630.801 86.700, 632.391 86.373 C 635.217 85.793, 635.150 85.708, 629.391 82.590 C 613.231 73.841, 608.362 71.128, 594.500 63.154 L 579.500 54.524 571 54.353 C 566.325 54.259, 555.750 55.039, 547.500 56.086 M 540.500 136.455 C 527.439 140.403, 516.934 150.361, 513.274 162.265 C 511.273 168.774, 511.078 183.603, 512.899 190.839 L 514.242 196.178 523.371 200.529 C 543.485 210.117, 556.214 218.633, 570.105 231.797 C 583.207 244.214, 594.681 260.402, 599.501 273.272 C 601.484 278.566, 602.477 279.149, 601.053 274.184 C 600.441 272.051, 600.485 271, 601.186 271 C 601.762 271, 601.996 270.092, 601.706 268.982 C 601.415 267.873, 601.737 266.406, 602.419 265.723 C 603.102 265.041, 603.485 263.954, 603.270 263.309 C 602.793 261.880, 606.391 259.787, 607.608 260.785 C 608.087 261.178, 607.696 260.565, 606.739 259.421 C 605.783 258.278, 604.996 256.928, 604.990 256.421 C 604.980 255.460, 599.786 248.639, 595.177 243.535 C 593.705 241.904, 591.573 239.344, 590.439 237.847 C 589.306 236.350, 585.634 232.059, 582.280 228.312 C 566.039 210.172, 549.936 188.034, 548.055 181.258 C 545.022 170.336, 548.133 160.993, 557.907 151.671 L 563.761 146.086 557.131 142.173 C 545.373 135.235, 544.982 135.100, 540.500 136.455 M 257 295.915 C 255.625 296.383, 245.123 299.798, 233.661 303.503 L 212.823 310.240 219.661 313.928 C 223.423 315.956, 231.723 320.348, 238.106 323.689 L 249.712 329.762 264.106 323.610 C 272.023 320.227, 283.559 315.443, 289.743 312.979 C 295.926 310.516, 300.989 308.263, 300.993 307.972 C 300.997 307.682, 296.837 305.924, 291.750 304.065 C 286.663 302.207, 282.050 300.378, 281.500 300.001 C 276.419 296.522, 262.190 294.149, 257 295.915 M 605.984 305.797 L 606.468 311.500 606.795 306.610 C 606.974 303.921, 606.756 301.355, 606.310 300.907 C 605.865 300.460, 605.718 302.660, 605.984 305.797 M 606.320 318 C 606.320 321.575, 606.502 323.038, 606.723 321.250 C 606.945 319.462, 606.945 316.538, 606.723 314.750 C 606.502 312.962, 606.320 314.425, 606.320 318 M 200.146 321.487 C 196.098 326.097, 194.711 331.559, 194.762 342.684 C 194.799 350.811, 195.127 352.462, 197.609 357.022 C 200.925 363.116, 205.284 365.682, 219.642 369.993 C 229.126 372.840, 235.641 376.077, 239.816 380.016 C 241.090 381.218, 242.357 381.977, 242.631 381.702 C 243.205 381.129, 232.133 373, 230.778 373 C 230.285 373, 230.090 372.663, 230.345 372.250 C 230.600 371.837, 229.665 371.431, 228.267 371.347 C 225.949 371.208, 220.008 365.729, 220.002 363.724 C 219.999 362.463, 225.811 365.845, 226.920 367.750 C 227.481 368.712, 227.953 369.151, 227.970 368.724 C 227.986 368.298, 229.463 368.662, 231.250 369.535 L 234.500 371.120 232 369.082 C 230.625 367.962, 229.182 367.034, 228.794 367.022 C 228.406 367.010, 226.440 365.881, 224.426 364.514 C 222.411 363.147, 220.405 362.250, 219.967 362.520 C 219.529 362.791, 219.020 362.664, 218.835 362.239 C 218.651 361.814, 216.366 359.735, 213.758 357.619 C 208.020 352.965, 207.407 350.960, 206.529 334 C 205.605 316.174, 205.313 315.601, 200.146 321.487 M 628.189 333.168 C 628.085 336.286, 627.741 339.661, 627.424 340.668 C 626.887 342.379, 626.923 342.385, 627.974 340.750 C 628.602 339.774, 628.940 336.455, 628.739 333.250 L 628.378 327.500 628.189 333.168 M 588.531 370.847 C 585.798 375.056, 583.098 378.831, 582.531 379.235 C 581.964 379.639, 581.907 379.976, 582.405 379.985 C 582.903 379.993, 582.453 381.005, 581.405 382.233 C 579.711 384.218, 579.701 384.309, 581.316 383.056 C 582.315 382.280, 583.796 380.361, 584.609 378.790 C 585.421 377.220, 586.485 376.182, 586.973 376.484 C 587.462 376.786, 588.187 376.506, 588.585 375.862 C 589.063 375.088, 588.873 374.960, 588.025 375.485 C 587.169 376.013, 586.894 375.815, 587.199 374.889 C 587.452 374.125, 588.675 372.988, 589.918 372.363 C 591.502 371.567, 591.778 371.066, 590.839 370.692 C 589.767 370.265, 589.761 370.142, 590.809 370.079 C 591.529 370.036, 591.840 369.550, 591.500 369 C 591.160 368.450, 591.385 368, 592 368 C 592.615 368, 592.864 367.588, 592.553 367.085 C 592.242 366.582, 592.508 365.997, 593.144 365.785 C 593.780 365.573, 594.120 364.904, 593.900 364.297 C 593.680 363.691, 591.264 366.639, 588.531 370.847 M 614.380 379.041 C 612.678 382.287, 611.679 384.698, 612.162 384.400 C 613.213 383.751, 618.276 373.943, 617.804 373.471 C 617.623 373.289, 616.081 375.796, 614.380 379.041 M 275.082 374.185 C 275.037 374.562, 275.494 376.137, 276.099 377.685 C 276.703 379.233, 277.576 383.650, 278.039 387.500 L 278.880 394.500 278.570 387.500 C 278.399 383.650, 277.563 378.925, 276.711 377 C 275.860 375.075, 275.126 373.808, 275.082 374.185 M 412.844 375.333 C 401.867 379.437, 394.735 386.917, 393.417 395.707 C 392.295 403.189, 393.523 411.681, 396.344 415.944 C 403.623 426.943, 424.333 428.255, 435.795 418.443 C 449.913 406.359, 447.330 384.945, 430.718 376.354 C 426.521 374.184, 417.323 373.658, 412.844 375.333 M 413.718 377.092 C 402.124 379.821, 395.804 388.195, 395.661 401.012 C 395.517 413.886, 403.201 421.413, 416.419 421.343 C 429.665 421.273, 439.152 412.953, 440.678 400.069 C 441.408 393.911, 439.688 388.768, 435.263 383.869 C 431.368 379.558, 430 379.058, 430 381.943 C 430 384.115, 426.477 387, 423.825 387 C 418.350 387, 414.394 381.801, 416.862 377.849 C 417.497 376.832, 417.901 376.045, 417.758 376.100 C 417.616 376.156, 415.798 376.602, 413.718 377.092 M 466.500 383.331 C 453.320 387.673, 446.439 397.052, 446.567 410.500 C 446.707 425.253, 455.103 433.014, 470.899 432.990 C 481.861 432.974, 491.204 427.308, 496.222 417.634 C 499.023 412.234, 499.280 401.022, 496.712 396.266 C 494.459 392.095, 488.829 386.480, 484.822 384.408 C 480.628 382.239, 471.452 381.700, 466.500 383.331 M 244.212 384.554 C 246.537 387.297, 249 393.394, 249 396.409 C 249 397.769, 249.390 399.123, 249.867 399.417 C 251.096 400.177, 249.364 391.605, 247.599 388.191 C 246.792 386.631, 245.315 384.720, 244.316 383.944 C 242.584 382.600, 242.579 382.628, 244.212 384.554 M 461.401 387.394 C 455.855 389.976, 452.777 393.546, 450.479 400.060 C 447.680 407.992, 449.128 418.166, 453.788 423.320 C 459.154 429.253, 472.759 431.004, 481.516 426.887 C 492.572 421.691, 497.643 407.024, 492.113 396.240 C 490.271 392.649, 485.332 387.207, 484.706 388.079 C 484.541 388.311, 483.879 389.725, 483.236 391.222 C 481.148 396.089, 473.478 396.186, 470.333 391.386 C 468.973 389.309, 468.874 388.431, 469.829 386.902 C 470.865 385.243, 470.728 385.001, 468.758 385.010 C 467.516 385.015, 464.205 386.088, 461.401 387.394 M 569.245 395.998 C 565.493 399.532, 564.333 401, 565.292 401 C 565.452 401, 567.571 398.975, 570 396.500 C 575.473 390.924, 574.980 390.596, 569.245 395.998 M 603.288 397.250 C 602.762 397.938, 601.076 400.300, 599.542 402.500 L 596.752 406.500 599.901 403 C 603.058 399.489, 605.430 396, 604.658 396 C 604.431 396, 603.814 396.563, 603.288 397.250 M 587.598 417 C 582.854 422.500, 579.317 426.974, 579.737 426.943 C 580.553 426.882, 597.440 407, 596.676 407 C 596.427 407, 592.342 411.500, 587.598 417 M 626 412.870 C 617.110 415.187, 609.478 419.505, 603.358 425.680 C 598.627 430.453, 593.887 439.220, 595.282 440.616 C 596.322 441.656, 619.382 435.741, 623.983 433.255 C 637.790 425.793, 662.957 438.863, 672.003 458.192 C 679.144 473.453, 678.749 491.650, 670.932 507.500 C 661.076 527.485, 642.259 539.225, 615.663 541.983 C 610.329 542.536, 605.636 542.938, 605.233 542.876 C 604.830 542.814, 603.016 542.816, 601.202 542.882 L 597.903 543 598.609 547.250 C 598.997 549.587, 599.275 555.888, 599.227 561.250 C 599.158 568.964, 599.431 571, 600.534 571 C 604.082 571, 622.799 566.839, 631.940 564.019 C 682.672 548.363, 702.715 526.067, 703.079 484.882 C 703.297 460.252, 697.059 442.833, 682.970 428.733 C 676.929 422.688, 673.504 420.179, 667.518 417.413 C 653.737 411.046, 639.132 409.448, 626 412.870 M 631 436.564 C 627.975 437.311, 621 439.063, 615.500 440.457 C 610 441.852, 601 444.049, 595.500 445.339 L 585.500 447.686 589.836 449.907 C 592.221 451.129, 598.690 453.470, 604.211 455.111 C 609.733 456.751, 616.332 459.147, 618.875 460.434 C 628.227 465.167, 630.662 465.435, 639 462.648 C 651.412 458.499, 663.081 454.253, 663.659 453.675 C 664.889 452.445, 654.076 442.556, 647.533 438.927 C 639.858 434.670, 639.102 434.562, 631 436.564 M 699.232 438 C 700.608 440.204, 700.641 440.212, 703.500 439.040 C 705.358 438.278, 705.301 438.142, 702.685 437.110 C 698.642 435.516, 697.814 435.729, 699.232 438 M 508.330 447.583 C 503.473 452.853, 499.359 457.691, 499.186 458.333 C 499.014 458.975, 500.812 457.250, 503.182 454.500 C 505.552 451.750, 509.924 446.913, 512.898 443.750 C 515.871 440.587, 518.047 438, 517.732 438 C 517.417 438, 513.186 442.312, 508.330 447.583 M 424.873 500.923 C 417.243 507.786, 413.779 515.092, 413.222 525.500 C 412.986 529.900, 413.214 535.075, 413.729 537 L 414.663 540.500 415.398 535.500 C 417.153 523.557, 423.512 507.440, 429.636 499.411 C 433.360 494.528, 431.233 495.203, 424.873 500.923 M 518.394 507.829 C 520.654 511.485, 546.491 526.859, 547.923 525.400 C 549.071 524.230, 536.940 514.096, 530.794 511.091 C 523.803 507.674, 517.229 505.944, 518.394 507.829 M 466.610 511.621 C 460.705 523.780, 458.602 539.803, 461.475 550.753 C 464.778 563.344, 472.783 574.592, 483.906 582.269 C 497.346 591.547, 513.832 592.277, 531 584.354 C 536.679 581.733, 544.915 576.071, 544.969 574.750 C 544.986 574.337, 543.233 574, 541.074 574 C 538.914 574, 532.626 573.109, 527.101 572.020 C 490.022 564.712, 474.433 549.653, 469.752 516.621 L 468.494 507.742 466.610 511.621 M 555.336 549 C 555.336 553.125, 555.513 554.813, 555.728 552.750 C 555.944 550.688, 555.944 547.313, 555.728 545.250 C 555.513 543.188, 555.336 544.875, 555.336 549 M 552.539 561.878 C 552.001 563.573, 550.874 563.966, 545.697 564.261 L 539.500 564.615 545.715 564.807 C 551.101 564.974, 552.078 564.722, 553.046 562.914 C 553.660 561.767, 553.942 560.608, 553.672 560.339 C 553.403 560.070, 552.893 560.762, 552.539 561.878 M 480.832 614.876 C 470.014 618.521, 460.852 621.814, 460.472 622.194 C 459.301 623.366, 470.479 629.884, 495 642.329 C 507.925 648.888, 520.564 655.548, 523.088 657.128 C 525.611 658.707, 528.477 660, 529.457 660 C 530.437 660, 533.772 658.476, 536.869 656.614 C 544.452 652.055, 558.472 644.819, 563.999 642.613 L 568.498 640.817 565.499 639.233 C 563.850 638.361, 554.234 633.906, 544.131 629.332 C 526.865 621.515, 514.063 615.074, 506 610.146 C 504.075 608.970, 502.050 608.062, 501.500 608.128 C 500.950 608.194, 491.649 611.231, 480.832 614.876" stroke="none" fill="#224a5f" fill-rule="evenodd"/><path d="M 0 373.501 L 0 747.002 450.250 746.751 L 900.500 746.500 900.751 373.250 L 901.003 0 450.501 0 L 0 0 0 373.501 M 0.495 374 C 0.495 579.425, 0.610 663.462, 0.750 560.750 C 0.890 458.037, 0.890 289.962, 0.750 187.250 C 0.610 84.537, 0.495 168.575, 0.495 374 M 606.332 42.903 C 601.908 44.035, 594.523 48.519, 592.183 51.494 L 590.220 53.990 584.457 51.352 C 578.888 48.802, 578.253 48.733, 565.597 49.307 C 549.060 50.056, 526.592 53.977, 521.079 57.076 C 517.868 58.880, 516.608 60.435, 515.115 64.432 C 512.736 70.802, 510.291 85.492, 509.444 98.500 C 508.593 111.578, 508.342 111.263, 531.712 126.396 L 539.925 131.714 532.712 133.822 C 519.328 137.733, 511.161 144.681, 505.868 156.658 C 504.161 160.521, 503.734 163.421, 503.759 171 C 503.787 179.842, 504.889 185.076, 508.428 193.183 C 509.097 194.717, 508.602 194.695, 502.831 192.934 C 475.714 184.662, 438.901 183.909, 412 191.077 C 394.535 195.731, 376.093 204.499, 363.928 213.935 C 357.465 218.948, 341 235.853, 341 237.477 C 341 237.838, 339.912 239.566, 338.581 241.317 C 332.531 249.279, 323.906 268.520, 320.120 282.500 C 317.217 293.218, 315.435 318.653, 317.107 325.500 C 317.510 327.150, 318.092 330.525, 318.401 333 C 319.095 338.560, 320.214 342.838, 322.904 350.207 C 328.337 365.091, 336.073 376.541, 356.541 399.995 C 386.580 434.416, 392.657 448.952, 384.481 466.827 C 381.465 473.423, 379.070 476.145, 369.494 483.857 C 359.604 491.822, 357.157 493.444, 348.321 497.890 C 332.601 505.801, 319.874 508.561, 303.159 507.685 C 290.041 506.997, 281.915 505.167, 274.809 501.300 C 263.502 495.146, 257.027 486.770, 255.244 475.994 C 253.786 467.178, 253.806 465.713, 255.511 456.500 C 257.519 445.652, 260.935 437.377, 271.200 418.500 C 275.984 409.700, 280.408 400.250, 281.031 397.500 C 282.978 388.894, 280.680 376.851, 275.725 369.692 C 274.656 368.148, 273.943 366.749, 274.141 366.584 C 274.338 366.418, 279.900 363.465, 286.500 360.021 C 308.520 348.531, 309.151 347.956, 309.531 339 C 309.755 333.723, 310.180 308.065, 310.073 306.267 C 309.967 304.474, 302.320 300.866, 286.208 295.006 C 268.843 288.690, 265.174 288.443, 252 292.709 C 246.775 294.401, 238 297.196, 232.500 298.921 C 227 300.645, 218.900 303.506, 214.500 305.278 C 206.989 308.303, 206.481 308.699, 206.187 311.750 C 205.943 314.281, 205.411 315, 203.781 315 C 200.479 315, 195.708 319.286, 192.506 325.130 C 189.913 329.860, 189.516 331.710, 189.171 340.660 C 188.879 348.251, 189.194 352.069, 190.419 355.755 C 193.933 366.335, 199.382 370.636, 216 375.948 C 228.716 380.013, 230.909 381.070, 238.153 386.629 C 245.351 392.153, 248.493 398.097, 247.467 404.248 C 246.592 409.495, 243.675 415.361, 236.363 426.580 C 220.222 451.342, 213.131 474.730, 214.275 499.431 C 214.755 509.790, 217.254 520.094, 219.730 521.928 C 220.155 522.243, 221.127 523.712, 221.890 525.193 C 223.688 528.684, 234.003 539, 235.696 539 C 236.413 539, 237 539.376, 237 539.837 C 237 542.656, 266.031 554.053, 277.142 555.596 C 292.218 557.690, 314.070 556.064, 331.796 551.529 C 343.918 548.428, 349.345 546.346, 364.682 538.912 C 371.390 535.660, 377.356 533, 377.939 533 C 378.523 533, 379.057 534.013, 379.128 535.250 C 379.198 536.487, 379.382 538.400, 379.537 539.500 C 381.480 553.300, 382.111 566.256, 381.075 571.096 C 378.320 583.971, 369.268 590.127, 350.922 591.604 C 334.621 592.915, 317.256 586.406, 287.726 567.914 C 274.216 559.454, 264.176 555.242, 253.970 553.754 C 235.903 551.121, 219.194 558.347, 207.853 573.699 C 200.812 583.230, 197.728 593.846, 198.578 605.627 C 199.466 617.936, 208.985 633.437, 221 642.139 C 231.511 649.752, 247.248 649.831, 253.744 642.303 C 257.974 637.401, 259.275 627.876, 256.329 623.380 C 255.410 621.977, 251.181 618.183, 246.931 614.947 C 238.024 608.167, 235 603.944, 235 598.287 C 235 593.812, 236.571 591.913, 242.224 589.551 C 246.869 587.610, 250.219 588.256, 260.890 593.151 C 265.504 595.268, 269.554 596.999, 269.890 596.997 C 270.960 596.993, 258.669 589.785, 254.126 587.753 C 238.547 580.785, 224.664 592.621, 231.864 606.733 C 233.698 610.329, 236.677 613.429, 244.611 620 C 251.239 625.490, 252.641 630.797, 249.027 636.723 C 246.771 640.424, 243.839 641.432, 237.196 640.790 C 230.465 640.140, 225.290 637.373, 218.963 631.041 C 201.256 613.321, 200.771 591.242, 217.688 572.970 C 221.370 568.993, 225.373 565.957, 229.821 563.768 C 235.904 560.774, 237.216 560.508, 245.480 560.594 C 258.198 560.726, 268.022 564.678, 286.705 577.179 C 290.668 579.831, 294.185 582, 294.522 582 C 294.858 582, 296.566 583.080, 298.317 584.400 C 304.286 588.899, 319.028 595.744, 327 597.719 C 330.025 598.468, 333.625 599.371, 335 599.724 C 340.102 601.038, 357.428 600.307, 364 598.501 C 381.944 593.570, 389.720 584.400, 390.710 567 C 391.139 559.461, 390.122 546.082, 388.580 539 C 381.583 506.850, 382.528 498.150, 394.410 485.324 C 407.522 471.171, 425.034 464.702, 440 468.483 L 442.500 469.115 440 467.689 C 431.110 462.619, 414.800 466.271, 399.288 476.805 C 391.325 482.212, 383.787 490.655, 379.933 498.484 C 376.998 504.445, 376.774 505.632, 376.865 514.708 L 376.964 524.500 368.732 529.166 C 358.073 535.207, 352.429 537.320, 336 541.419 C 314.721 546.729, 309.494 547.482, 294 547.472 C 278.198 547.461, 271.842 546.286, 258.002 540.819 C 241.311 534.225, 230.579 525.276, 224.643 513 L 221.500 506.500 221.602 489.500 C 221.692 474.639, 222.027 471.288, 224.265 462.869 C 227.733 449.821, 230.440 443.421, 239.459 426.946 C 244.490 417.758, 247.610 410.765, 248.493 406.704 C 249.234 403.292, 249.877 401.255, 249.921 402.177 C 249.964 403.100, 251.012 404.686, 252.250 405.702 C 253.487 406.717, 254.649 408.213, 254.831 409.024 C 255.013 409.836, 255.726 410.818, 256.415 411.207 C 257.104 411.596, 258.943 413.753, 260.500 416 C 262.093 418.299, 263.896 419.870, 264.622 419.592 C 265.423 419.284, 265.123 420.498, 263.830 422.798 C 252.730 442.537, 248 456.777, 248 470.448 C 248 484.494, 253.980 496.309, 265.312 504.651 C 268.562 507.043, 271.625 509, 272.121 509 C 272.616 509, 274.929 509.889, 277.261 510.976 C 287.113 515.567, 307.767 517.365, 323 514.957 C 355.822 509.769, 387.219 484.957, 391.048 461.181 C 392.523 452.021, 390.762 441.404, 386.154 431.681 C 382.464 423.895, 378.410 418.181, 353.208 385.256 C 340.959 369.253, 333.702 355.822, 329.577 341.523 C 320.757 310.940, 326.877 276.341, 346.333 246.798 C 355.933 232.219, 372.709 217.198, 387.967 209.518 C 394.524 206.218, 410.759 200.053, 414.500 199.443 C 415.600 199.264, 419.650 198.383, 423.500 197.485 C 432.262 195.441, 466.085 194.502, 475.783 196.032 C 484.820 197.459, 496.966 200.422, 506.582 203.546 C 515.190 206.343, 536.294 216.444, 538.115 218.639 C 538.737 219.388, 539.644 220, 540.131 220 C 540.972 220, 545.981 223.369, 552.430 228.273 C 554.041 229.498, 559.823 234.775, 565.279 240 C 587.089 260.887, 595.148 279.625, 595.386 310 C 595.488 322.974, 595.203 325.605, 592.678 335 C 584.962 363.707, 568.846 385.020, 534.500 411.937 C 527.900 417.110, 519.667 424.077, 516.204 427.421 C 508.798 434.572, 498.013 450.163, 494.513 458.775 C 491.801 465.449, 489.844 473.032, 490.856 472.944 C 491.210 472.913, 492.994 469.756, 494.820 465.928 C 496.647 462.101, 498.528 459.208, 499.001 459.501 C 499.475 459.793, 500.155 459.559, 500.513 458.979 C 501.861 456.798, 511.381 453.084, 518.615 451.917 C 527.768 450.440, 547.796 451.520, 551.288 453.678 C 551.799 453.994, 557.680 448.908, 564.356 442.376 C 573.810 433.127, 574.505 432.571, 567.498 439.863 C 552.025 455.963, 543.781 464.143, 531.830 475.251 C 521.601 484.758, 519.698 486.109, 515.381 486.929 C 512.697 487.439, 509.298 488.314, 507.829 488.873 C 505.512 489.756, 504.946 489.567, 503.556 487.445 C 501.297 483.997, 499.852 484.397, 501.638 487.977 C 503.088 490.884, 503.039 491.027, 499.503 494.132 C 494.103 498.873, 491.617 504.358, 491.554 511.673 C 491.512 516.443, 491.978 518.489, 493.603 520.673 C 496.820 524.996, 504.173 529.845, 508.561 530.538 C 513.695 531.349, 518.701 528.143, 521.553 522.217 L 523.606 517.951 525.812 520.300 C 527.025 521.592, 527.783 522.883, 527.496 523.171 C 527.209 523.458, 527.633 525.271, 528.439 527.200 C 529.806 530.471, 531.029 538.309, 531.220 545.018 C 531.290 547.498, 531.561 547.770, 533.128 546.931 C 534.577 546.156, 534.835 546.267, 534.373 547.471 C 534.052 548.306, 533.389 548.741, 532.899 548.438 C 531.882 547.809, 530.708 550.520, 529.198 556.988 C 528.420 560.321, 528.453 561.667, 529.325 562.222 C 531.731 563.752, 524.505 562.938, 517.608 560.902 C 505.558 557.344, 497.337 552.452, 488.442 543.545 C 481.675 536.767, 479.863 534.223, 477.128 527.652 C 473.475 518.878, 471 507.496, 471 499.471 C 471 496.527, 470.550 493.840, 470 493.500 C 469.380 493.117, 469 494.964, 469 498.364 C 469 502.857, 468.278 505.184, 465.001 511.261 C 457.123 525.865, 454.636 545.415, 458.926 559 C 464.493 576.626, 478.124 590.677, 494.781 595.961 C 501.081 597.960, 503.439 598.199, 512.281 597.741 C 528.333 596.908, 542.872 590.307, 553.185 579.167 C 565.487 565.880, 567.952 550.641, 560.322 535.046 C 553.848 521.814, 534.328 507.715, 520.506 506.288 L 514.547 505.673 517.274 508.913 C 519.241 511.251, 520 513.260, 520 516.126 C 520 529.355, 507.635 532.321, 498.040 521.392 C 495.032 517.967, 494.814 517.255, 495.197 512.091 C 496.320 496.949, 510.151 489.592, 530.540 493.290 C 537.507 494.554, 542.169 496.251, 551.500 500.920 C 569.291 509.821, 579.333 519.006, 586.027 532.500 C 591.087 542.699, 593.023 551.897, 592.557 563.511 C 591.581 587.810, 579.817 605.481, 557.018 616.894 C 551.408 619.702, 545.981 622, 544.958 622 C 543.209 622, 527.676 615.626, 525.500 614.015 C 524.950 613.608, 519.623 611.385, 513.662 609.074 C 501.073 604.193, 501.479 604.170, 480.746 611.003 C 474.076 613.201, 467.982 615, 467.204 615 C 465.624 615, 459.501 610.516, 453.653 605.077 C 449.122 600.863, 437.709 585.033, 433.050 576.500 C 426.143 563.850, 423.449 549.917, 424.272 531.102 C 425.011 514.191, 429.272 500.882, 436.147 494.007 C 437.801 492.353, 438.881 491, 438.548 491 C 436.329 491, 424.894 497.952, 420.738 501.828 C 406.988 514.652, 405.206 526.175, 412.517 555 C 418.173 577.303, 419.490 585.418, 419.495 598 C 419.500 608.413, 419.245 610.045, 416.797 615.268 C 409.680 630.456, 390.957 641.551, 370.500 642.703 C 356.178 643.509, 333.950 638.044, 317.205 629.598 C 308.723 625.320, 291.748 614.118, 282 606.366 C 266.399 593.960, 271.067 599.667, 289.342 615.342 C 303.155 627.190, 313.016 634.204, 322.618 639.013 C 326.403 640.909, 329.730 642.771, 330.010 643.151 C 330.291 643.531, 331.866 644.164, 333.510 644.559 C 335.155 644.953, 336.994 645.662, 337.598 646.134 C 340.752 648.600, 355.968 651.265, 367 651.284 C 379.726 651.306, 387.983 649.656, 396.964 645.296 C 419.684 634.266, 429.440 619.671, 429.249 597 C 429.173 588.017, 429.255 587.627, 430.759 589.830 C 433.827 594.323, 452.720 610.557, 458.477 613.646 L 464.292 616.767 459.190 619.107 C 454.151 621.419, 454.080 621.515, 453.409 626.885 C 452.620 633.197, 454.465 650.233, 456.590 656.256 C 457.395 658.536, 458.824 661.254, 459.768 662.296 C 462.971 665.835, 482.428 679.538, 503.823 693.324 C 522.759 705.525, 525.502 706.996, 528.323 706.467 C 530.071 706.139, 542.058 699.487, 554.962 691.685 C 582.249 675.187, 579.674 678.883, 580.177 655.500 L 580.500 640.500 565 632.670 C 556.475 628.364, 549.387 624.536, 549.248 624.166 C 549.110 623.795, 551.739 622.428, 555.090 621.129 C 572.042 614.555, 589.069 597.250, 595.169 580.393 L 597.379 574.286 608.940 573.664 C 615.298 573.322, 621.828 572.783, 623.450 572.465 C 645.408 568.171, 653.582 565.453, 670.813 556.715 C 689.104 547.440, 704.604 529.499, 707.975 513.700 C 708.468 511.390, 709.381 507.700, 710.003 505.500 C 711.658 499.654, 712.275 437.435, 710.690 436.272 C 710.035 435.792, 706.125 434.428, 702 433.241 C 695.410 431.344, 693.683 430.307, 687.767 424.689 C 676.345 413.845, 663.595 408.288, 647.892 407.312 C 630.678 406.242, 613.641 412.274, 602.815 423.269 C 597.057 429.117, 591 438.387, 591 441.353 C 591 442.296, 589.862 443.210, 588.250 443.562 C 581.746 444.982, 580.063 446.145, 579.400 449.682 C 578.629 453.791, 579.814 479.222, 581.031 484.680 C 581.563 487.068, 583.085 489.511, 585.089 491.196 C 588.633 494.176, 601.422 500.586, 613 505.185 C 617.125 506.824, 622.629 509.252, 625.232 510.582 C 627.834 511.912, 631.209 512.988, 632.732 512.972 C 634.254 512.957, 642.250 510.316, 650.500 507.103 C 658.750 503.891, 665.667 501.408, 665.871 501.586 C 666.629 502.246, 660.974 510.812, 656.487 515.803 C 646.147 527.304, 632.844 533.008, 611.551 535.069 C 595.303 536.643, 595.788 536.755, 592.833 530.750 C 586.771 518.433, 575.809 507.135, 561.908 498.876 C 550.271 491.963, 540.898 488.669, 526.513 486.439 C 523.042 485.900, 522.744 485.660, 524.217 484.583 C 525.148 483.903, 533.917 476.561, 543.705 468.267 C 568.401 447.341, 600.273 415.508, 610.553 401.500 C 612.168 399.300, 613.767 397.275, 614.107 397 C 615.129 396.173, 623.444 382.858, 626.283 377.500 C 630.920 368.750, 635.671 354.941, 637.466 345 C 639.195 335.421, 639.226 319.032, 637.536 308.888 C 632.305 277.504, 617.218 252.698, 584.399 221.524 C 568.044 205.988, 552.628 188.748, 550.467 183.575 C 546.263 173.513, 552.430 160.066, 564.926 152.048 C 569.151 149.336, 570.204 149.039, 572.056 150.030 C 574.477 151.326, 575.474 151.210, 589 148.053 C 594.225 146.834, 599.175 145.690, 600 145.511 C 608.229 143.730, 623.627 139.374, 630.557 136.866 C 639.485 133.635, 641 132.134, 641 126.519 C 641 125.133, 642.691 122.387, 645.116 119.834 C 654.236 110.231, 659.172 99.341, 658.890 89.441 C 658.473 74.761, 643.946 51.331, 631.355 45.030 C 627.555 43.128, 624.653 42.545, 618 42.346 C 613.325 42.207, 608.074 42.457, 606.332 42.903 M 603.500 47.177 C 598.853 48.939, 593 52.890, 593.003 54.263 C 593.007 55.786, 610.622 65.905, 635.285 78.551 C 641.782 81.882, 644.346 83.765, 645.126 85.778 C 646.131 88.369, 645.604 103.841, 644.352 108.500 C 643.349 112.234, 646.712 106.806, 649.002 100.994 C 653.072 90.669, 652.162 82.247, 645.510 68.677 C 637.836 53.023, 629.382 46.937, 614.500 46.354 C 610.100 46.181, 605.150 46.552, 603.500 47.177 M 547.500 56.086 C 539.250 57.133, 530.349 58.329, 527.719 58.745 L 522.938 59.500 537.719 69.089 C 545.849 74.363, 558.920 82.393, 566.766 86.933 L 581.031 95.187 605.266 91.077 C 618.595 88.817, 630.801 86.700, 632.391 86.373 C 635.217 85.793, 635.150 85.708, 629.391 82.590 C 613.231 73.841, 608.362 71.128, 594.500 63.154 L 579.500 54.524 571 54.353 C 566.325 54.259, 555.750 55.039, 547.500 56.086 M 540.500 136.455 C 527.439 140.403, 516.934 150.361, 513.274 162.265 C 511.273 168.774, 511.078 183.603, 512.899 190.839 L 514.242 196.178 523.371 200.529 C 543.485 210.117, 556.214 218.633, 570.105 231.797 C 583.207 244.214, 594.681 260.402, 599.501 273.272 C 601.484 278.566, 602.477 279.149, 601.053 274.184 C 600.441 272.051, 600.485 271, 601.186 271 C 601.762 271, 601.996 270.092, 601.706 268.982 C 601.415 267.873, 601.737 266.406, 602.419 265.723 C 603.102 265.041, 603.485 263.954, 603.270 263.309 C 602.793 261.880, 606.391 259.787, 607.608 260.785 C 608.087 261.178, 607.696 260.565, 606.739 259.421 C 605.783 258.278, 604.996 256.928, 604.990 256.421 C 604.980 255.460, 599.786 248.639, 595.177 243.535 C 593.705 241.904, 591.573 239.344, 590.439 237.847 C 589.306 236.350, 585.634 232.059, 582.280 228.312 C 566.039 210.172, 549.936 188.034, 548.055 181.258 C 545.022 170.336, 548.133 160.993, 557.907 151.671 L 563.761 146.086 557.131 142.173 C 545.373 135.235, 544.982 135.100, 540.500 136.455 M 257 295.915 C 255.625 296.383, 245.123 299.798, 233.661 303.503 L 212.823 310.240 219.661 313.928 C 223.423 315.956, 231.723 320.348, 238.106 323.689 L 249.712 329.762 264.106 323.610 C 272.023 320.227, 283.559 315.443, 289.743 312.979 C 295.926 310.516, 300.989 308.263, 300.993 307.972 C 300.997 307.682, 296.837 305.924, 291.750 304.065 C 286.663 302.207, 282.050 300.378, 281.500 300.001 C 276.419 296.522, 262.190 294.149, 257 295.915 M 605.984 305.797 L 606.468 311.500 606.795 306.610 C 606.974 303.921, 606.756 301.355, 606.310 300.907 C 605.865 300.460, 605.718 302.660, 605.984 305.797 M 606.320 318 C 606.320 321.575, 606.502 323.038, 606.723 321.250 C 606.945 319.462, 606.945 316.538, 606.723 314.750 C 606.502 312.962, 606.320 314.425, 606.320 318 M 200.146 321.487 C 196.098 326.097, 194.711 331.559, 194.762 342.684 C 194.799 350.811, 195.127 352.462, 197.609 357.022 C 200.925 363.116, 205.284 365.682, 219.642 369.993 C 229.126 372.840, 235.641 376.077, 239.816 380.016 C 241.090 381.218, 242.357 381.977, 242.631 381.702 C 243.205 381.129, 232.133 373, 230.778 373 C 230.285 373, 230.090 372.663, 230.345 372.250 C 230.600 371.837, 229.665 371.431, 228.267 371.347 C 225.949 371.208, 220.008 365.729, 220.002 363.724 C 219.999 362.463, 225.811 365.845, 226.920 367.750 C 227.481 368.712, 227.953 369.151, 227.970 368.724 C 227.986 368.298, 229.463 368.662, 231.250 369.535 L 234.500 371.120 232 369.082 C 230.625 367.962, 229.182 367.034, 228.794 367.022 C 228.406 367.010, 226.440 365.881, 224.426 364.514 C 222.411 363.147, 220.405 362.250, 219.967 362.520 C 219.529 362.791, 219.020 362.664, 218.835 362.239 C 218.651 361.814, 216.366 359.735, 213.758 357.619 C 208.020 352.965, 207.407 350.960, 206.529 334 C 205.605 316.174, 205.313 315.601, 200.146 321.487 M 628.189 333.168 C 628.085 336.286, 627.741 339.661, 627.424 340.668 C 626.887 342.379, 626.923 342.385, 627.974 340.750 C 628.602 339.774, 628.940 336.455, 628.739 333.250 L 628.378 327.500 628.189 333.168 M 588.531 370.847 C 585.798 375.056, 583.098 378.831, 582.531 379.235 C 581.964 379.639, 581.907 379.976, 582.405 379.985 C 582.903 379.993, 582.453 381.005, 581.405 382.233 C 579.711 384.218, 579.701 384.309, 581.316 383.056 C 582.315 382.280, 583.796 380.361, 584.609 378.790 C 585.421 377.220, 586.485 376.182, 586.973 376.484 C 587.462 376.786, 588.187 376.506, 588.585 375.862 C 589.063 375.088, 588.873 374.960, 588.025 375.485 C 587.169 376.013, 586.894 375.815, 587.199 374.889 C 587.452 374.125, 588.675 372.988, 589.918 372.363 C 591.502 371.567, 591.778 371.066, 590.839 370.692 C 589.767 370.265, 589.761 370.142, 590.809 370.079 C 591.529 370.036, 591.840 369.550, 591.500 369 C 591.160 368.450, 591.385 368, 592 368 C 592.615 368, 592.864 367.588, 592.553 367.085 C 592.242 366.582, 592.508 365.997, 593.144 365.785 C 593.780 365.573, 594.120 364.904, 593.900 364.297 C 593.680 363.691, 591.264 366.639, 588.531 370.847 M 614.380 379.041 C 612.678 382.287, 611.679 384.698, 612.162 384.400 C 613.213 383.751, 618.276 373.943, 617.804 373.471 C 617.623 373.289, 616.081 375.796, 614.380 379.041 M 275.082 374.185 C 275.037 374.562, 275.494 376.137, 276.099 377.685 C 276.703 379.233, 277.576 383.650, 278.039 387.500 L 278.880 394.500 278.570 387.500 C 278.399 383.650, 277.563 378.925, 276.711 377 C 275.860 375.075, 275.126 373.808, 275.082 374.185 M 412.844 375.333 C 401.867 379.437, 394.735 386.917, 393.417 395.707 C 392.295 403.189, 393.523 411.681, 396.344 415.944 C 403.623 426.943, 424.333 428.255, 435.795 418.443 C 449.913 406.359, 447.330 384.945, 430.718 376.354 C 426.521 374.184, 417.323 373.658, 412.844 375.333 M 413.718 377.092 C 402.124 379.821, 395.804 388.195, 395.661 401.012 C 395.517 413.886, 403.201 421.413, 416.419 421.343 C 429.665 421.273, 439.152 412.953, 440.678 400.069 C 441.408 393.911, 439.688 388.768, 435.263 383.869 C 431.368 379.558, 430 379.058, 430 381.943 C 430 384.115, 426.477 387, 423.825 387 C 418.350 387, 414.394 381.801, 416.862 377.849 C 417.497 376.832, 417.901 376.045, 417.758 376.100 C 417.616 376.156, 415.798 376.602, 413.718 377.092 M 466.500 383.331 C 453.320 387.673, 446.439 397.052, 446.567 410.500 C 446.707 425.253, 455.103 433.014, 470.899 432.990 C 481.861 432.974, 491.204 427.308, 496.222 417.634 C 499.023 412.234, 499.280 401.022, 496.712 396.266 C 494.459 392.095, 488.829 386.480, 484.822 384.408 C 480.628 382.239, 471.452 381.700, 466.500 383.331 M 244.212 384.554 C 246.537 387.297, 249 393.394, 249 396.409 C 249 397.769, 249.390 399.123, 249.867 399.417 C 251.096 400.177, 249.364 391.605, 247.599 388.191 C 246.792 386.631, 245.315 384.720, 244.316 383.944 C 242.584 382.600, 242.579 382.628, 244.212 384.554 M 461.401 387.394 C 455.855 389.976, 452.777 393.546, 450.479 400.060 C 447.680 407.992, 449.128 418.166, 453.788 423.320 C 459.154 429.253, 472.759 431.004, 481.516 426.887 C 492.572 421.691, 497.643 407.024, 492.113 396.240 C 490.271 392.649, 485.332 387.207, 484.706 388.079 C 484.541 388.311, 483.879 389.725, 483.236 391.222 C 481.148 396.089, 473.478 396.186, 470.333 391.386 C 468.973 389.309, 468.874 388.431, 469.829 386.902 C 470.865 385.243, 470.728 385.001, 468.758 385.010 C 467.516 385.015, 464.205 386.088, 461.401 387.394 M 569.245 395.998 C 565.493 399.532, 564.333 401, 565.292 401 C 565.452 401, 567.571 398.975, 570 396.500 C 575.473 390.924, 574.980 390.596, 569.245 395.998 M 603.288 397.250 C 602.762 397.938, 601.076 400.300, 599.542 402.500 L 596.752 406.500 599.901 403 C 603.058 399.489, 605.430 396, 604.658 396 C 604.431 396, 603.814 396.563, 603.288 397.250 M 587.598 417 C 582.854 422.500, 579.317 426.974, 579.737 426.943 C 580.553 426.882, 597.440 407, 596.676 407 C 596.427 407, 592.342 411.500, 587.598 417 M 626 412.870 C 617.110 415.187, 609.478 419.505, 603.358 425.680 C 598.627 430.453, 593.887 439.220, 595.282 440.616 C 596.322 441.656, 619.382 435.741, 623.983 433.255 C 637.790 425.793, 662.957 438.863, 672.003 458.192 C 679.144 473.453, 678.749 491.650, 670.932 507.500 C 661.076 527.485, 642.259 539.225, 615.663 541.983 C 610.329 542.536, 605.636 542.938, 605.233 542.876 C 604.830 542.814, 603.016 542.816, 601.202 542.882 L 597.903 543 598.609 547.250 C 598.997 549.587, 599.275 555.888, 599.227 561.250 C 599.158 568.964, 599.431 571, 600.534 571 C 604.082 571, 622.799 566.839, 631.940 564.019 C 682.672 548.363, 702.715 526.067, 703.079 484.882 C 703.297 460.252, 697.059 442.833, 682.970 428.733 C 676.929 422.688, 673.504 420.179, 667.518 417.413 C 653.737 411.046, 639.132 409.448, 626 412.870 M 631 436.564 C 627.975 437.311, 621 439.063, 615.500 440.457 C 610 441.852, 601 444.049, 595.500 445.339 L 585.500 447.686 589.836 449.907 C 592.221 451.129, 598.690 453.470, 604.211 455.111 C 609.733 456.751, 616.332 459.147, 618.875 460.434 C 628.227 465.167, 630.662 465.435, 639 462.648 C 651.412 458.499, 663.081 454.253, 663.659 453.675 C 664.889 452.445, 654.076 442.556, 647.533 438.927 C 639.858 434.670, 639.102 434.562, 631 436.564 M 699.232 438 C 700.608 440.204, 700.641 440.212, 703.500 439.040 C 705.358 438.278, 705.301 438.142, 702.685 437.110 C 698.642 435.516, 697.814 435.729, 699.232 438 M 508.330 447.583 C 503.473 452.853, 499.359 457.691, 499.186 458.333 C 499.014 458.975, 500.812 457.250, 503.182 454.500 C 505.552 451.750, 509.924 446.913, 512.898 443.750 C 515.871 440.587, 518.047 438, 517.732 438 C 517.417 438, 513.186 442.312, 508.330 447.583 M 424.873 500.923 C 417.243 507.786, 413.779 515.092, 413.222 525.500 C 412.986 529.900, 413.214 535.075, 413.729 537 L 414.663 540.500 415.398 535.500 C 417.153 523.557, 423.512 507.440, 429.636 499.411 C 433.360 494.528, 431.233 495.203, 424.873 500.923 M 518.394 507.829 C 520.654 511.485, 546.491 526.859, 547.923 525.400 C 549.071 524.230, 536.940 514.096, 530.794 511.091 C 523.803 507.674, 517.229 505.944, 518.394 507.829 M 466.610 511.621 C 460.705 523.780, 458.602 539.803, 461.475 550.753 C 464.778 563.344, 472.783 574.592, 483.906 582.269 C 497.346 591.547, 513.832 592.277, 531 584.354 C 536.679 581.733, 544.915 576.071, 544.969 574.750 C 544.986 574.337, 543.233 574, 541.074 574 C 538.914 574, 532.626 573.109, 527.101 572.020 C 490.022 564.712, 474.433 549.653, 469.752 516.621 L 468.494 507.742 466.610 511.621 M 555.336 549 C 555.336 553.125, 555.513 554.813, 555.728 552.750 C 555.944 550.688, 555.944 547.313, 555.728 545.250 C 555.513 543.188, 555.336 544.875, 555.336 549 M 552.539 561.878 C 552.001 563.573, 550.874 563.966, 545.697 564.261 L 539.500 564.615 545.715 564.807 C 551.101 564.974, 552.078 564.722, 553.046 562.914 C 553.660 561.767, 553.942 560.608, 553.672 560.339 C 553.403 560.070, 552.893 560.762, 552.539 561.878 M 480.832 614.876 C 470.014 618.521, 460.852 621.814, 460.472 622.194 C 459.301 623.366, 470.479 629.884, 495 642.329 C 507.925 648.888, 520.564 655.548, 523.088 657.128 C 525.611 658.707, 528.477 660, 529.457 660 C 530.437 660, 533.772 658.476, 536.869 656.614 C 544.452 652.055, 558.472 644.819, 563.999 642.613 L 568.498 640.817 565.499 639.233 C 563.850 638.361, 554.234 633.906, 544.131 629.332 C 526.865 621.515, 514.063 615.074, 506 610.146 C 504.075 608.970, 502.050 608.062, 501.500 608.128 C 500.950 608.194, 491.649 611.231, 480.832 614.876" stroke="none" fill="#eceff2" fill-rule="evenodd"/></svg>